<svg xmlns="http://www.w3.org/2000/svg" xmlns:xlink="http://www.w3.org/1999/xlink" version="1.1" width="256" height="256" viewBox="0 0 256 256" xml:space="preserve">

<defs>
</defs>
<g style="stroke: none; stroke-width: 0; stroke-dasharray: none; stroke-linecap: butt; stroke-linejoin: miter; stroke-miterlimit: 10; fill: none; fill-rule: nonzero; opacity: 1;" transform="translate(1.4065934065934016 1.4065934065934016) scale(2.81 2.81)" >
	<path d="M 45 90 L 45 90 C 20.147 90 0 69.853 0 45 v 0 C 0 20.147 20.147 0 45 0 h 0 c 24.853 0 45 20.147 45 45 v 0 C 90 69.853 69.853 90 45 90 z" style="stroke: none; stroke-width: 1; stroke-dasharray: none; stroke-linecap: butt; stroke-linejoin: miter; stroke-miterlimit: 10; fill: rgb(49,60,70); fill-rule: nonzero; opacity: 1;" transform=" matrix(1 0 0 1 0 0) " stroke-linecap="round" />
	<path d="M 12.618 61.309 c 0.197 -0.315 0.512 -0.335 0.945 -0.059 c 9.848 5.712 20.564 8.568 32.145 8.568 c 7.721 0 15.344 -1.438 22.868 -4.314 c 0.197 -0.079 0.483 -0.197 0.857 -0.355 c 0.374 -0.158 0.64 -0.276 0.798 -0.355 c 0.591 -0.236 1.054 -0.118 1.389 0.355 c 0.335 0.473 0.226 0.906 -0.325 1.3 c -0.709 0.512 -1.615 1.103 -2.718 1.773 c -3.388 2.009 -7.17 3.565 -11.345 4.668 c -4.176 1.103 -8.253 1.655 -12.232 1.655 c -6.145 0 -11.956 -1.074 -17.432 -3.22 c -5.476 -2.147 -10.38 -5.17 -14.714 -9.07 c -0.236 -0.197 -0.355 -0.394 -0.355 -0.591 C 12.5 61.545 12.539 61.427 12.618 61.309 z M 65.386 62.314 c 0.079 -0.158 0.197 -0.315 0.355 -0.473 c 0.985 -0.67 1.93 -1.123 2.836 -1.359 c 1.497 -0.394 2.955 -0.611 4.373 -0.65 c 0.394 -0.039 0.768 -0.02 1.123 0.059 c 1.773 0.158 2.836 0.453 3.191 0.886 c 0.158 0.236 0.236 0.591 0.236 1.064 v 0.414 c 0 1.379 -0.374 3.004 -1.123 4.875 c -0.749 1.871 -1.792 3.378 -3.132 4.52 c -0.197 0.158 -0.374 0.236 -0.532 0.236 c -0.079 0 -0.158 -0.02 -0.236 -0.059 c -0.236 -0.118 -0.295 -0.335 -0.177 -0.65 c 1.458 -3.427 2.186 -5.811 2.186 -7.15 c 0 -0.433 -0.079 -0.749 -0.236 -0.945 c -0.394 -0.473 -1.497 -0.709 -3.309 -0.709 c -0.67 0 -1.458 0.039 -2.364 0.118 c -0.985 0.118 -1.891 0.236 -2.718 0.355 c -0.236 0 -0.394 -0.039 -0.473 -0.118 c -0.079 -0.079 -0.099 -0.158 -0.059 -0.236 C 65.327 62.451 65.347 62.392 65.386 62.314 z" style="stroke: none; stroke-width: 1; stroke-dasharray: none; stroke-linecap: butt; stroke-linejoin: miter; stroke-miterlimit: 10; fill: rgb(240,147,27); fill-rule: nonzero; opacity: 1;" transform=" matrix(1 0 0 1 0 0) " stroke-linecap="round" />
	<path d="M 63.436 48.25 c -0.63 -0.827 -1.083 -1.428 -1.359 -1.802 c -0.276 -0.374 -0.561 -0.985 -0.857 -1.832 c -0.295 -0.847 -0.443 -1.783 -0.443 -2.807 v -14.3 c 0 -0.158 -0.02 -0.66 -0.059 -1.507 c -0.039 -0.847 -0.099 -1.398 -0.177 -1.655 s -0.197 -0.719 -0.355 -1.389 c -0.158 -0.67 -0.335 -1.182 -0.532 -1.536 c -0.197 -0.355 -0.463 -0.758 -0.798 -1.211 c -0.332 -0.45 -0.698 -0.875 -1.093 -1.27 c -2.521 -2.324 -6.027 -3.486 -10.518 -3.486 h -1.477 c -3.506 0.197 -6.569 1.142 -9.189 2.836 s -4.264 4.294 -4.934 7.8 c -0.039 0.158 -0.059 0.295 -0.059 0.414 c 0 0.552 0.335 0.906 1.005 1.064 l 6.795 0.827 c 0.63 -0.118 1.024 -0.571 1.182 -1.359 c 0.276 -1.261 0.886 -2.245 1.832 -2.955 c 0.945 -0.709 2.068 -1.123 3.368 -1.241 h 0.473 c 1.773 0 3.073 0.591 3.9 1.773 c 0.551 0.867 0.827 2.561 0.827 5.082 V 30.7 c -2.403 0.197 -4.136 0.354 -5.2 0.473 c -3.112 0.394 -5.732 1.044 -7.859 1.95 c -2.324 0.985 -4.156 2.442 -5.495 4.373 c -1.339 1.93 -2.009 4.255 -2.009 6.973 c 0 3.427 0.975 6.077 2.925 7.948 s 4.442 2.807 7.475 2.807 c 1.97 0 3.624 -0.197 4.964 -0.591 c 2.127 -0.591 4.294 -2.088 6.5 -4.491 c 0.158 0.197 0.433 0.581 0.827 1.152 c 0.394 0.571 0.68 0.955 0.857 1.152 s 0.473 0.512 0.886 0.945 c 0.414 0.433 0.896 0.886 1.448 1.359 c 0.67 0.276 1.241 0.236 1.714 -0.118 c 0.276 -0.236 2.048 -1.773 5.318 -4.609 c 0.315 -0.236 0.473 -0.512 0.473 -0.827 C 63.791 48.92 63.673 48.605 63.436 48.25 z M 50.968 37.732 c 0 1.261 -0.01 2.167 -0.03 2.718 c -0.02 0.551 -0.138 1.27 -0.355 2.157 c -0.217 0.886 -0.542 1.704 -0.975 2.452 c -0.906 1.694 -2.186 2.758 -3.841 3.191 c -0.079 0 -0.227 0.02 -0.443 0.059 c -0.217 0.039 -0.384 0.059 -0.502 0.059 c -1.3 0 -2.334 -0.463 -3.102 -1.389 s -1.152 -2.157 -1.152 -3.693 c 0 -3.388 1.733 -5.574 5.2 -6.559 c 1.182 -0.315 2.915 -0.473 5.2 -0.473 V 37.732 z" style="stroke: none; stroke-width: 1; stroke-dasharray: none; stroke-linecap: butt; stroke-linejoin: miter; stroke-miterlimit: 10; fill: rgb(249,249,249); fill-rule: nonzero; opacity: 1;" transform=" matrix(1 0 0 1 0 0) " stroke-linecap="round" />
</g>
</svg>